<svg width="16" height="14" viewBox="0 0 16 14" fill="none" xmlns="http://www.w3.org/2000/svg">
<path d="M14.4934 4.50001C14.4934 4.05001 14.4344 3.65278 14.3165 3.30834C14.1985 2.9639 14.0476 2.69028 13.8639 2.48751C13.6801 2.28473 13.4565 2.11945 13.1932 1.99167C12.9298 1.8639 12.672 1.77778 12.4196 1.73334C12.1673 1.6889 11.8985 1.66667 11.6132 1.66667C11.3279 1.66667 11.0207 1.73751 10.6915 1.87917C10.3623 2.02084 10.0592 2.19862 9.78218 2.41251C9.50514 2.6264 9.26786 2.8264 9.07036 3.01251C8.87286 3.19862 8.70828 3.36945 8.57661 3.52501C8.47786 3.64723 8.34345 3.70834 8.17338 3.70834C8.00331 3.70834 7.8689 3.64723 7.77015 3.52501C7.63849 3.36945 7.4739 3.19862 7.2764 3.01251C7.0789 2.8264 6.84163 2.6264 6.56458 2.41251C6.28753 2.19862 5.98442 2.02084 5.65526 1.87917C5.32609 1.73751 5.01887 1.66667 4.73359 1.66667C4.44831 1.66667 4.17949 1.6889 3.92713 1.73334C3.67477 1.77778 3.41692 1.8639 3.15359 1.99167C2.89026 2.11945 2.6667 2.28473 2.48291 2.48751C2.29913 2.69028 2.14826 2.9639 2.03031 3.30834C1.91236 3.65278 1.85338 4.05001 1.85338 4.50001C1.85338 5.43334 2.36633 6.41945 3.39224 7.45834L8.17338 12.125L12.9463 7.46667C13.9777 6.42223 14.4934 5.43334 14.4934 4.50001ZM15.5467 4.50001C15.5467 5.72778 14.9186 6.97778 13.6622 8.25001L8.53547 13.25C8.43672 13.35 8.31602 13.4 8.17338 13.4C8.03074 13.4 7.91005 13.35 7.8113 13.25L2.6763 8.23334C2.62144 8.1889 2.546 8.11667 2.45 8.01667C2.35399 7.91667 2.20175 7.73473 1.99328 7.47084C1.78481 7.20695 1.59828 6.93612 1.43369 6.65834C1.26911 6.38056 1.12236 6.04445 0.993434 5.65001C0.864511 5.25556 0.800049 4.87223 0.800049 4.50001C0.800049 3.27778 1.14842 2.32223 1.84515 1.63334C2.54189 0.944451 3.5047 0.600006 4.73359 0.600006C5.07373 0.600006 5.42073 0.659728 5.77458 0.779173C6.12843 0.898617 6.4576 1.05973 6.76208 1.26251C7.06656 1.46528 7.32852 1.65556 7.54797 1.83334C7.76741 2.01112 7.97588 2.20001 8.17338 2.40001C8.37088 2.20001 8.57935 2.01112 8.7988 1.83334C9.01824 1.65556 9.28021 1.46528 9.58468 1.26251C9.88916 1.05973 10.2183 0.898617 10.5722 0.779173C10.926 0.659728 11.273 0.600006 11.6132 0.600006C12.8421 0.600006 13.8049 0.944451 14.5016 1.63334C15.1983 2.32223 15.5467 3.27778 15.5467 4.50001Z" fill="#8C8C8C"/>
</svg>
