<svg width="16" height="14" viewBox="0 0 16 14" fill="none" xmlns="http://www.w3.org/2000/svg">
<path d="M8.17347 13.4C8.03084 13.4 7.91015 13.35 7.81141 13.25L2.67678 8.23333C2.62192 8.18889 2.54649 8.11667 2.45049 8.01667C2.35449 7.91667 2.20226 7.73472 1.9938 7.47083C1.78535 7.20694 1.59883 6.93611 1.43426 6.65833C1.26969 6.38055 1.12295 6.04444 0.994031 5.65C0.865116 5.25555 0.800659 4.87222 0.800659 4.5C0.800659 3.27778 1.149 2.32222 1.84569 1.63333C2.54238 0.944443 3.50512 0.599998 4.73392 0.599998C5.07403 0.599998 5.42101 0.659721 5.77484 0.779165C6.12866 0.89861 6.45781 1.05972 6.76227 1.2625C7.06672 1.46528 7.32867 1.65555 7.54809 1.83333C7.76752 2.01111 7.97598 2.2 8.17347 2.4C8.37095 2.2 8.57941 2.01111 8.79884 1.83333C9.01827 1.65555 9.28021 1.46528 9.58467 1.2625C9.88913 1.05972 10.2183 0.89861 10.5721 0.779165C10.9259 0.659721 11.2729 0.599998 11.613 0.599998C12.8418 0.599998 13.8046 0.944443 14.5012 1.63333C15.1979 2.32222 15.5463 3.27778 15.5463 4.5C15.5463 5.72778 14.9182 6.97778 13.6619 8.25L8.53552 13.25C8.43678 13.35 8.3161 13.4 8.17347 13.4Z" fill="#32C0C6"/>
</svg>
