<svg width="24" height="21" viewBox="0 0 24 21" fill="none" xmlns="http://www.w3.org/2000/svg">
<path d="M12.0002 20.1923C11.7681 20.1923 11.5717 20.1166 11.411 19.9651L3.05441 12.3678C2.96513 12.3005 2.84238 12.1911 2.68614 12.0397C2.5299 11.8882 2.28215 11.6127 1.94289 11.213C1.60362 10.8134 1.30007 10.4032 1.03224 9.98257C0.764399 9.5619 0.525577 9.05289 0.31577 8.45553C0.105964 7.85817 0.00106049 7.27765 0.00106049 6.71394C0.00106049 4.86298 0.567984 3.41587 1.70183 2.3726C2.83568 1.32933 4.40253 0.807693 6.40239 0.807693C6.95592 0.807693 7.52061 0.898138 8.09647 1.07903C8.67232 1.25992 9.20799 1.50391 9.70349 1.811C10.199 2.11809 10.6253 2.40625 10.9824 2.67548C11.3395 2.94471 11.6788 3.23077 12.0002 3.53365C12.3216 3.23077 12.6609 2.94471 13.018 2.67548C13.3751 2.40625 13.8014 2.11809 14.2969 1.811C14.7924 1.50391 15.3281 1.25992 15.9039 1.07903C16.4798 0.898138 17.0445 0.807693 17.598 0.807693C19.5979 0.807693 21.1647 1.32933 22.2986 2.3726C23.4324 3.41587 23.9993 4.86298 23.9993 6.71394C23.9993 8.57332 22.9771 10.4663 20.9326 12.393L12.5894 19.9651C12.4287 20.1166 12.2323 20.1923 12.0002 20.1923Z" fill="#8C8C8C"/>
</svg>
